<?xml version="1.0" encoding="UTF-8" standalone="yes"?>
<svg width="90mm" height="90mm" viewBox="0 0 90 90" version="1.2" baseProfile="tiny-ps" xmlns="http://www.w3.org/2000/svg">
  <title>unvanquished-bimi-svg-tiny-12-ps</title>
  <defs id="defs882"/>
  <g id="layer1" transform="translate(-68.779105,-115.32184)">
    <rect id="background" width="90" height="90" x="68.779106" y="115.32184" ry="0" fill="#000000" fill-opacity="1" stroke="none" stroke-width="2.35609" stroke-opacity="1"/>
    <path id="logo" d="m 138.0124,139.57134 c 0.90239,-0.60748 2.30543,-1.67749 3.11787,-2.3778 l 1.41027,-1.31499 c 0.37902,-0.52407 0.96706,-0.69841 1.34608,0.0167 l 0.30207,0.88192 0.8112,2.12385 v -6.75723 h -10.62544 l 0.004,0.57324 -0.32504,1.53556 -0.32505,1.53557 -0.017,1.73285 -0.017,1.73286 0.33105,0.41395 c 0.50252,0.24396 1.19742,0.44581 1.98544,0.94162 l 0.36095,0.0664 1.64071,-1.1045 -1e-5,1e-5 h 1e-5 z m 6.94647,4.51296 c 0,-0.21418 0.32561,-0.37996 -0.8579,-2.40827 -0.60251,-1.29789 -0.95088,-2.13683 -0.95311,-2.45999 -0.002,-0.32317 -0.0607,-0.78986 -0.0807,-1.27627 -0.0489,-0.33344 0.008,-0.86608 -0.47772,-0.61827 l -2.88761,2.26983 c -0.83958,0.63349 -2.0742,1.10998 -2.49364,2.02323 l 0.52769,0.74106 0.36046,0.56593 1.4405,0.71156 c 1.44093,0.71177 2.16081,0.88419 4.02267,0.96345 l 1.3994,0.10126 z m -60.93456,21.0524 0.89711,-0.37393 0.28616,-0.5334 c 0.38993,-0.72685 0.42759,-0.62544 -1.01554,-2.10498 l -1.30169,-1.32618 -0.33214,0.013 c 0.0201,1.4496 0.016,2.89754 0,4.34715 l 0.19886,0.17613 c 0.21962,0.19452 0.3981,0.0919 1.26724,-0.1978 z m 60.97558,21.06276 v -33.22875 l -0.52442,0.0198 c -2.92899,0.2168 -4.66317,-2.50484 -5.65785,-4.63149 l -1.14585,-1.22802 -1.10405,-0.64422 -0.5302,-0.0145 0.0634,0.41914 1.70227,2.06811 1.03345,1.25913 -0.0377,1.95388 0.14617,1.84547 -0.0801,1.63533 -0.15538,1.62699 -0.34027,0.98705 -0.11455,-1.20637 0.0708,-2.88526 -0.16332,-2.72679 -0.14398,-0.81936 c -0.24013,-0.34973 -1.25708,-1.53405 -2.03509,-2.50951 l -1.62358,-2.08214 -1.02965,-0.42534 0.1157,0.92575 c -0.0588,0.32191 0.35903,1.00634 -0.14821,1.11719 -0.11358,0.49512 -0.51017,2.24425 -1.06493,4.31491 l -0.95016,3.58137 -0.58921,1.35109 c -0.11911,0.27313 0.24657,-1.87706 0.34281,-2.46995 0.14015,-0.26126 0.50731,-1.88817 0.81589,-3.61538 l 0.64467,-3.39058 c -0.0578,-0.45044 -0.10306,-0.45885 0.20153,-0.88426 l -0.19975,-1.89342 -0.72337,-0.92423 -0.77354,-1.00764 -1.36542,-0.50256 -1.97572,-0.75276 c -3.22728,-0.0598 -5.39277,0.018 -7.79785,-0.0756 -0.69945,-0.0675 -1.17977,0.25514 -1.96339,0.22451 0.18393,-0.21377 0.57207,-0.3354 0.53506,-0.34107 l 0.91865,-0.39553 1.48715,-0.16201 2.74011,-0.0965 3.53122,-0.21157 c 0.69423,-0.0747 0.83337,0.33517 1.21089,0.53694 l 0.64288,0.28555 0.70349,0.20826 0.95904,-0.061 -0.0676,-0.48122 c -0.5737,-0.48359 -0.62415,-0.58381 -0.70602,-0.87044 l 0.36666,0.2241 0.29573,0.16512 0.6148,-0.19084 c 0.16353,-0.25062 0.12163,-0.42492 0.0103,-0.60212 -0.0685,-0.109 -0.42758,-0.0606 -0.79655,-0.33179 0.4257,-0.21549 0.92597,-0.0567 1.19718,0.33002 l 0.6947,-0.12997 0.31187,-3.30249 0.31187,-3.3025 0.11311,-0.73832 -16.81319,-10e-6 v 27.55462 h -2.06407 l -0.0367,-27.55461 h -31.5013 v 22.4121 c 0,-0.42769 0.86031,-1.30947 1.127841,-1.42623 l 0.72753,-0.50883 1.50178,-0.67392 c 0,0 0.80238,-0.38128 1.886349,-0.45709 0.808581,-0.0575 1.67953,0.31129 2.4754,0.62001 0,0 0.99048,0.48105 1.54225,1.13157 0,0 0.82902,1.05532 1.24129,1.49853 0.41229,0.44323 0.50816,1.09353 0.50816,1.09353 0.215591,0.59929 0.42857,1.48054 0.53567,2.27974 0.10709,0.79921 0.29572,1.71955 0.41919,2.04521 l 0.0238,0.5921 0.25221,0.33794 1.15511,-0.42935 c 0.7357,-0.2502 1.85386,0.61285 1.85386,0.61285 1.01963,0.33707 2.80141,0.50069 2.88185,1.12795 l 1.02798,0.5151 1.52349,1.50106 c 0.83792,0.82558 1.32354,1.43753 1.71267,1.64528 l 1.22586,0.61127 1.22668,-0.51351 1.19325,-0.7804 1.02054,-0.51754 c 0.0372,-0.61683 -0.0114,-0.78343 0.0842,-0.95123 l 2.58183,-1.54534 2.16381,-1.19507 0.82825,-0.48372 c 0.2992,0 0.68758,0.55286 0.98753,0.39272 v -0.6915 l 0.7429,-0.10586 0.44681,0.91163 4.36694,-2.61779 c 0.53061,-0.12286 0.84291,0.0343 0.75059,0.7104 -1.6094,1.02577 -3.27269,1.98232 -4.87828,3.01854 -0.0334,0.0573 0.93363,0.10465 0.93363,0.10465 0,0 0.75377,0.58645 0.96255,0.85464 0.41756,0.53639 0.59689,1.2668 0.68461,1.5212 l -0.0411,0.36245 -1.16955,1.35319 -1.0525,1.13601 -2.42621,1.58358 c -1.34361,0.82492 -2.47335,1.58291 -2.69446,1.76599 l -0.5525,-0.11753 -0.0324,1.26267 0.2017,0.6455 0.52869,0.86504 c 0.67305,1.10123 0.97376,0.99263 0.25488,2.02002 -1.11006,1.25866 -1.33746,1.54616 -2.03222,0.99212 -0.32458,0.41531 -0.83371,0.4624 -1.37881,0.43773 l -2.01324,-0.46975 1.50641,1.40674 0.65662,0.48366 c 0.26917,0.3027 1.11509,0.95276 1.87981,1.44456 l 1.66628,1.0193 c -0.31596,0.52928 -0.35656,0.56451 -0.70792,1.03715 l -0.62433,0.6733 1.59513,1.34504 -0.80564,0.96873 -1.63283,-1.0574 c -0.76688,1.0638 -0.95634,1.61403 -1.2765,1.97903 l -3.42986,-2.78152 0.81762,1.93993 -0.10201,0.3053 0.60103,1.0931 c 0.33057,0.60121 0.98478,1.22049 1.00174,1.55736 l 0.4007,0.46441 h 33.86523 c 0.543,-0.77261 1.17574,-1.52843 1.71979,-2.30055 z m -54.00986,1.24117 c 0.023,-0.26036 0.21517,-0.20489 0.45393,-0.61899 0.0367,-0.55832 0.0617,-1.12176 -0.73362,-2.04896 l -0.79272,-1.58897 -0.74266,-0.68181 -0.8136,-0.77618 -2.14202,0.21887 c -1.07407,0.0685 -2.00738,-0.0568 -2.44437,0.0469 l -1.21673,0.58892 -3e-5,3.58172 1.91585,2.33786 h 6.80788 c 0.15879,-0.24769 0.009,-0.73608 -0.29191,-1.05938 z" fill="#69dffa" fill-opacity="1" stroke="none" stroke-width="0"/>
  </g>
</svg>
